<mxfile host="app.diagrams.net" modified="2023-06-07T12:51:17.528Z" agent="Mozilla/5.0 (Windows NT 10.0; Win64; x64; rv:109.0) Gecko/20100101 Firefox/114.0" etag="LLLDdJtJIlDlGZgT4CKT" version="21.3.7" type="device">
  <diagram name="Página-1" id="bFvVE894T61nX8qG4c8L">
    <mxGraphModel dx="2442" dy="2027" grid="1" gridSize="10" guides="1" tooltips="1" connect="1" arrows="1" fold="1" page="1" pageScale="1" pageWidth="827" pageHeight="1169" math="0" shadow="0">
      <root>
        <mxCell id="0" />
        <mxCell id="1" parent="0" />
        <mxCell id="vLtM3-PHLCtbmGb2wkLM-6" style="edgeStyle=orthogonalEdgeStyle;rounded=0;orthogonalLoop=1;jettySize=auto;html=1;exitX=0.5;exitY=1;exitDx=0;exitDy=0;entryX=0.5;entryY=0;entryDx=0;entryDy=0;" edge="1" parent="1" source="vLtM3-PHLCtbmGb2wkLM-1" target="vLtM3-PHLCtbmGb2wkLM-3">
          <mxGeometry relative="1" as="geometry" />
        </mxCell>
        <mxCell id="vLtM3-PHLCtbmGb2wkLM-7" style="edgeStyle=orthogonalEdgeStyle;rounded=0;orthogonalLoop=1;jettySize=auto;html=1;exitX=0.5;exitY=1;exitDx=0;exitDy=0;entryX=0.5;entryY=0;entryDx=0;entryDy=0;" edge="1" parent="1" source="vLtM3-PHLCtbmGb2wkLM-1" target="vLtM3-PHLCtbmGb2wkLM-2">
          <mxGeometry relative="1" as="geometry" />
        </mxCell>
        <mxCell id="vLtM3-PHLCtbmGb2wkLM-8" style="edgeStyle=orthogonalEdgeStyle;rounded=0;orthogonalLoop=1;jettySize=auto;html=1;exitX=0.5;exitY=1;exitDx=0;exitDy=0;entryX=0.5;entryY=0;entryDx=0;entryDy=0;" edge="1" parent="1" source="vLtM3-PHLCtbmGb2wkLM-1" target="vLtM3-PHLCtbmGb2wkLM-4">
          <mxGeometry relative="1" as="geometry" />
        </mxCell>
        <mxCell id="vLtM3-PHLCtbmGb2wkLM-9" style="edgeStyle=orthogonalEdgeStyle;rounded=0;orthogonalLoop=1;jettySize=auto;html=1;exitX=0.5;exitY=1;exitDx=0;exitDy=0;entryX=0.5;entryY=0;entryDx=0;entryDy=0;" edge="1" parent="1" source="vLtM3-PHLCtbmGb2wkLM-1" target="vLtM3-PHLCtbmGb2wkLM-5">
          <mxGeometry relative="1" as="geometry" />
        </mxCell>
        <mxCell id="vLtM3-PHLCtbmGb2wkLM-1" value="Menú principal" style="rounded=1;whiteSpace=wrap;html=1;" vertex="1" parent="1">
          <mxGeometry x="80" y="-20" width="120" height="60" as="geometry" />
        </mxCell>
        <mxCell id="vLtM3-PHLCtbmGb2wkLM-36" style="edgeStyle=orthogonalEdgeStyle;rounded=0;orthogonalLoop=1;jettySize=auto;html=1;exitX=0.5;exitY=1;exitDx=0;exitDy=0;entryX=0;entryY=0.5;entryDx=0;entryDy=0;" edge="1" parent="1" source="vLtM3-PHLCtbmGb2wkLM-2" target="vLtM3-PHLCtbmGb2wkLM-10">
          <mxGeometry relative="1" as="geometry" />
        </mxCell>
        <mxCell id="vLtM3-PHLCtbmGb2wkLM-37" style="edgeStyle=orthogonalEdgeStyle;rounded=0;orthogonalLoop=1;jettySize=auto;html=1;exitX=0.5;exitY=1;exitDx=0;exitDy=0;entryX=0;entryY=0.5;entryDx=0;entryDy=0;" edge="1" parent="1" source="vLtM3-PHLCtbmGb2wkLM-2" target="vLtM3-PHLCtbmGb2wkLM-11">
          <mxGeometry relative="1" as="geometry" />
        </mxCell>
        <mxCell id="vLtM3-PHLCtbmGb2wkLM-38" style="edgeStyle=orthogonalEdgeStyle;rounded=0;orthogonalLoop=1;jettySize=auto;html=1;exitX=0.5;exitY=1;exitDx=0;exitDy=0;entryX=0;entryY=0.5;entryDx=0;entryDy=0;" edge="1" parent="1" source="vLtM3-PHLCtbmGb2wkLM-2" target="vLtM3-PHLCtbmGb2wkLM-12">
          <mxGeometry relative="1" as="geometry" />
        </mxCell>
        <mxCell id="vLtM3-PHLCtbmGb2wkLM-39" style="edgeStyle=orthogonalEdgeStyle;rounded=0;orthogonalLoop=1;jettySize=auto;html=1;exitX=0.5;exitY=1;exitDx=0;exitDy=0;entryX=0;entryY=0.5;entryDx=0;entryDy=0;" edge="1" parent="1" source="vLtM3-PHLCtbmGb2wkLM-2" target="vLtM3-PHLCtbmGb2wkLM-13">
          <mxGeometry relative="1" as="geometry" />
        </mxCell>
        <mxCell id="vLtM3-PHLCtbmGb2wkLM-40" style="edgeStyle=orthogonalEdgeStyle;rounded=0;orthogonalLoop=1;jettySize=auto;html=1;exitX=0.5;exitY=1;exitDx=0;exitDy=0;entryX=0;entryY=0.5;entryDx=0;entryDy=0;" edge="1" parent="1" source="vLtM3-PHLCtbmGb2wkLM-2" target="vLtM3-PHLCtbmGb2wkLM-14">
          <mxGeometry relative="1" as="geometry" />
        </mxCell>
        <mxCell id="vLtM3-PHLCtbmGb2wkLM-2" value="Tu colección" style="rounded=1;whiteSpace=wrap;html=1;" vertex="1" parent="1">
          <mxGeometry x="-473" y="190" width="120" height="60" as="geometry" />
        </mxCell>
        <mxCell id="vLtM3-PHLCtbmGb2wkLM-41" style="edgeStyle=orthogonalEdgeStyle;rounded=0;orthogonalLoop=1;jettySize=auto;html=1;exitX=0.5;exitY=1;exitDx=0;exitDy=0;entryX=0;entryY=0.5;entryDx=0;entryDy=0;" edge="1" parent="1" source="vLtM3-PHLCtbmGb2wkLM-3" target="vLtM3-PHLCtbmGb2wkLM-20">
          <mxGeometry relative="1" as="geometry" />
        </mxCell>
        <mxCell id="vLtM3-PHLCtbmGb2wkLM-42" style="edgeStyle=orthogonalEdgeStyle;rounded=0;orthogonalLoop=1;jettySize=auto;html=1;exitX=0.5;exitY=1;exitDx=0;exitDy=0;entryX=0;entryY=0.5;entryDx=0;entryDy=0;" edge="1" parent="1" source="vLtM3-PHLCtbmGb2wkLM-3" target="vLtM3-PHLCtbmGb2wkLM-21">
          <mxGeometry relative="1" as="geometry" />
        </mxCell>
        <mxCell id="vLtM3-PHLCtbmGb2wkLM-43" style="edgeStyle=orthogonalEdgeStyle;rounded=0;orthogonalLoop=1;jettySize=auto;html=1;exitX=0.5;exitY=1;exitDx=0;exitDy=0;entryX=0;entryY=0.5;entryDx=0;entryDy=0;" edge="1" parent="1" source="vLtM3-PHLCtbmGb2wkLM-3" target="vLtM3-PHLCtbmGb2wkLM-22">
          <mxGeometry relative="1" as="geometry" />
        </mxCell>
        <mxCell id="vLtM3-PHLCtbmGb2wkLM-3" value="Tus mazos" style="rounded=1;whiteSpace=wrap;html=1;" vertex="1" parent="1">
          <mxGeometry x="-160" y="190" width="120" height="60" as="geometry" />
        </mxCell>
        <mxCell id="vLtM3-PHLCtbmGb2wkLM-44" style="edgeStyle=orthogonalEdgeStyle;rounded=0;orthogonalLoop=1;jettySize=auto;html=1;exitX=0.5;exitY=1;exitDx=0;exitDy=0;entryX=0;entryY=0.5;entryDx=0;entryDy=0;" edge="1" parent="1" source="vLtM3-PHLCtbmGb2wkLM-4" target="vLtM3-PHLCtbmGb2wkLM-26">
          <mxGeometry relative="1" as="geometry" />
        </mxCell>
        <mxCell id="vLtM3-PHLCtbmGb2wkLM-45" style="edgeStyle=orthogonalEdgeStyle;rounded=0;orthogonalLoop=1;jettySize=auto;html=1;exitX=0.5;exitY=1;exitDx=0;exitDy=0;entryX=0;entryY=0.5;entryDx=0;entryDy=0;" edge="1" parent="1" source="vLtM3-PHLCtbmGb2wkLM-4" target="vLtM3-PHLCtbmGb2wkLM-27">
          <mxGeometry relative="1" as="geometry" />
        </mxCell>
        <mxCell id="vLtM3-PHLCtbmGb2wkLM-46" style="edgeStyle=orthogonalEdgeStyle;rounded=0;orthogonalLoop=1;jettySize=auto;html=1;exitX=0.5;exitY=1;exitDx=0;exitDy=0;entryX=0;entryY=0.5;entryDx=0;entryDy=0;" edge="1" parent="1" source="vLtM3-PHLCtbmGb2wkLM-4" target="vLtM3-PHLCtbmGb2wkLM-28">
          <mxGeometry relative="1" as="geometry" />
        </mxCell>
        <mxCell id="vLtM3-PHLCtbmGb2wkLM-47" style="edgeStyle=orthogonalEdgeStyle;rounded=0;orthogonalLoop=1;jettySize=auto;html=1;exitX=0.5;exitY=1;exitDx=0;exitDy=0;entryX=0;entryY=0.5;entryDx=0;entryDy=0;" edge="1" parent="1" source="vLtM3-PHLCtbmGb2wkLM-4" target="vLtM3-PHLCtbmGb2wkLM-29">
          <mxGeometry relative="1" as="geometry" />
        </mxCell>
        <mxCell id="vLtM3-PHLCtbmGb2wkLM-48" style="edgeStyle=orthogonalEdgeStyle;rounded=0;orthogonalLoop=1;jettySize=auto;html=1;exitX=0.5;exitY=1;exitDx=0;exitDy=0;entryX=0;entryY=0.5;entryDx=0;entryDy=0;" edge="1" parent="1" source="vLtM3-PHLCtbmGb2wkLM-4" target="vLtM3-PHLCtbmGb2wkLM-30">
          <mxGeometry relative="1" as="geometry" />
        </mxCell>
        <mxCell id="vLtM3-PHLCtbmGb2wkLM-4" value="Tu lista de deseos" style="rounded=1;whiteSpace=wrap;html=1;" vertex="1" parent="1">
          <mxGeometry x="360" y="190" width="120" height="60" as="geometry" />
        </mxCell>
        <mxCell id="vLtM3-PHLCtbmGb2wkLM-5" value="Buscar cartas globales" style="rounded=1;whiteSpace=wrap;html=1;" vertex="1" parent="1">
          <mxGeometry x="650" y="190" width="120" height="60" as="geometry" />
        </mxCell>
        <mxCell id="vLtM3-PHLCtbmGb2wkLM-10" value="Ver colección" style="rounded=1;whiteSpace=wrap;html=1;" vertex="1" parent="1">
          <mxGeometry x="-353" y="290" width="120" height="60" as="geometry" />
        </mxCell>
        <mxCell id="vLtM3-PHLCtbmGb2wkLM-11" value="Añadir cartas" style="rounded=1;whiteSpace=wrap;html=1;" vertex="1" parent="1">
          <mxGeometry x="-353" y="388" width="120" height="60" as="geometry" />
        </mxCell>
        <mxCell id="vLtM3-PHLCtbmGb2wkLM-12" value="Buscar cartas" style="rounded=1;whiteSpace=wrap;html=1;" vertex="1" parent="1">
          <mxGeometry x="-353" y="485" width="120" height="60" as="geometry" />
        </mxCell>
        <mxCell id="vLtM3-PHLCtbmGb2wkLM-13" value="Eliminar cartas" style="rounded=1;whiteSpace=wrap;html=1;" vertex="1" parent="1">
          <mxGeometry x="-353" y="583" width="120" height="60" as="geometry" />
        </mxCell>
        <mxCell id="vLtM3-PHLCtbmGb2wkLM-14" value="Exportar colección" style="rounded=1;whiteSpace=wrap;html=1;" vertex="1" parent="1">
          <mxGeometry x="-353" y="680" width="120" height="60" as="geometry" />
        </mxCell>
        <mxCell id="vLtM3-PHLCtbmGb2wkLM-54" style="edgeStyle=orthogonalEdgeStyle;rounded=0;orthogonalLoop=1;jettySize=auto;html=1;exitX=1;exitY=0.5;exitDx=0;exitDy=0;entryX=0;entryY=0.5;entryDx=0;entryDy=0;" edge="1" parent="1" source="vLtM3-PHLCtbmGb2wkLM-20" target="vLtM3-PHLCtbmGb2wkLM-49">
          <mxGeometry relative="1" as="geometry" />
        </mxCell>
        <mxCell id="vLtM3-PHLCtbmGb2wkLM-55" style="edgeStyle=orthogonalEdgeStyle;rounded=0;orthogonalLoop=1;jettySize=auto;html=1;exitX=1;exitY=0.5;exitDx=0;exitDy=0;entryX=0;entryY=0.5;entryDx=0;entryDy=0;" edge="1" parent="1" source="vLtM3-PHLCtbmGb2wkLM-20" target="vLtM3-PHLCtbmGb2wkLM-50">
          <mxGeometry relative="1" as="geometry" />
        </mxCell>
        <mxCell id="vLtM3-PHLCtbmGb2wkLM-56" style="edgeStyle=orthogonalEdgeStyle;rounded=0;orthogonalLoop=1;jettySize=auto;html=1;exitX=1;exitY=0.5;exitDx=0;exitDy=0;entryX=0;entryY=0.5;entryDx=0;entryDy=0;" edge="1" parent="1" source="vLtM3-PHLCtbmGb2wkLM-20" target="vLtM3-PHLCtbmGb2wkLM-51">
          <mxGeometry relative="1" as="geometry" />
        </mxCell>
        <mxCell id="vLtM3-PHLCtbmGb2wkLM-57" style="edgeStyle=orthogonalEdgeStyle;rounded=0;orthogonalLoop=1;jettySize=auto;html=1;exitX=1;exitY=0.5;exitDx=0;exitDy=0;entryX=0;entryY=0.5;entryDx=0;entryDy=0;" edge="1" parent="1" source="vLtM3-PHLCtbmGb2wkLM-20" target="vLtM3-PHLCtbmGb2wkLM-52">
          <mxGeometry relative="1" as="geometry" />
        </mxCell>
        <mxCell id="vLtM3-PHLCtbmGb2wkLM-60" style="edgeStyle=orthogonalEdgeStyle;rounded=0;orthogonalLoop=1;jettySize=auto;html=1;exitX=1;exitY=0.5;exitDx=0;exitDy=0;entryX=0;entryY=0.5;entryDx=0;entryDy=0;" edge="1" parent="1" source="vLtM3-PHLCtbmGb2wkLM-20" target="vLtM3-PHLCtbmGb2wkLM-53">
          <mxGeometry relative="1" as="geometry" />
        </mxCell>
        <mxCell id="vLtM3-PHLCtbmGb2wkLM-20" value="Ver tus mazos" style="rounded=1;whiteSpace=wrap;html=1;" vertex="1" parent="1">
          <mxGeometry x="-30" y="290" width="120" height="60" as="geometry" />
        </mxCell>
        <mxCell id="vLtM3-PHLCtbmGb2wkLM-21" value="Crear nuevo mazo" style="rounded=1;whiteSpace=wrap;html=1;" vertex="1" parent="1">
          <mxGeometry x="-30" y="388" width="120" height="60" as="geometry" />
        </mxCell>
        <mxCell id="vLtM3-PHLCtbmGb2wkLM-22" value="Eliminar mazo" style="rounded=1;whiteSpace=wrap;html=1;" vertex="1" parent="1">
          <mxGeometry x="-30" y="485" width="120" height="60" as="geometry" />
        </mxCell>
        <mxCell id="vLtM3-PHLCtbmGb2wkLM-26" value="Ver lista de deseos" style="rounded=1;whiteSpace=wrap;html=1;" vertex="1" parent="1">
          <mxGeometry x="500" y="290" width="120" height="60" as="geometry" />
        </mxCell>
        <mxCell id="vLtM3-PHLCtbmGb2wkLM-27" value="Añadir cartas" style="rounded=1;whiteSpace=wrap;html=1;" vertex="1" parent="1">
          <mxGeometry x="500" y="388" width="120" height="60" as="geometry" />
        </mxCell>
        <mxCell id="vLtM3-PHLCtbmGb2wkLM-28" value="Buscar cartas" style="rounded=1;whiteSpace=wrap;html=1;" vertex="1" parent="1">
          <mxGeometry x="500" y="485" width="120" height="60" as="geometry" />
        </mxCell>
        <mxCell id="vLtM3-PHLCtbmGb2wkLM-29" value="Eliminar cartas" style="rounded=1;whiteSpace=wrap;html=1;" vertex="1" parent="1">
          <mxGeometry x="500" y="584" width="120" height="60" as="geometry" />
        </mxCell>
        <mxCell id="vLtM3-PHLCtbmGb2wkLM-30" value="Exportar lista de deseos" style="rounded=1;whiteSpace=wrap;html=1;" vertex="1" parent="1">
          <mxGeometry x="500" y="680" width="120" height="60" as="geometry" />
        </mxCell>
        <mxCell id="vLtM3-PHLCtbmGb2wkLM-50" value="Añadir cartas" style="rounded=1;whiteSpace=wrap;html=1;" vertex="1" parent="1">
          <mxGeometry x="190" y="390" width="120" height="60" as="geometry" />
        </mxCell>
        <mxCell id="vLtM3-PHLCtbmGb2wkLM-51" value="Buscar cartas" style="rounded=1;whiteSpace=wrap;html=1;" vertex="1" parent="1">
          <mxGeometry x="190" y="485" width="120" height="60" as="geometry" />
        </mxCell>
        <mxCell id="vLtM3-PHLCtbmGb2wkLM-52" value="Eliminar cartas" style="rounded=1;whiteSpace=wrap;html=1;" vertex="1" parent="1">
          <mxGeometry x="190" y="584" width="120" height="60" as="geometry" />
        </mxCell>
        <mxCell id="vLtM3-PHLCtbmGb2wkLM-53" value="Exportar mazo" style="rounded=1;whiteSpace=wrap;html=1;" vertex="1" parent="1">
          <mxGeometry x="190" y="680" width="120" height="60" as="geometry" />
        </mxCell>
        <mxCell id="vLtM3-PHLCtbmGb2wkLM-59" value="" style="edgeStyle=orthogonalEdgeStyle;rounded=0;orthogonalLoop=1;jettySize=auto;html=1;exitX=1;exitY=0.5;exitDx=0;exitDy=0;entryX=0;entryY=0.5;entryDx=0;entryDy=0;" edge="1" parent="1" source="vLtM3-PHLCtbmGb2wkLM-20" target="vLtM3-PHLCtbmGb2wkLM-49">
          <mxGeometry relative="1" as="geometry">
            <mxPoint x="90" y="320" as="sourcePoint" />
            <mxPoint x="480" y="640" as="targetPoint" />
          </mxGeometry>
        </mxCell>
        <mxCell id="vLtM3-PHLCtbmGb2wkLM-49" value="Ver mazo" style="rounded=1;whiteSpace=wrap;html=1;" vertex="1" parent="1">
          <mxGeometry x="190" y="290" width="120" height="60" as="geometry" />
        </mxCell>
      </root>
    </mxGraphModel>
  </diagram>
</mxfile>
